<svg id="Layer_1" data-name="Layer 1" xmlns="http://www.w3.org/2000/svg" viewBox="0 0 500 500"><defs><style>.cls-1{font-size:66.4px;font-family:Arial-Black, Arial Black;}</style></defs><title>logo-top</title><path d="M193.06,280.3l-7.77-7.7a3.19,3.19,0,1,0-4.49,4.52l7.77,7.7a3.16,3.16,0,0,0,2.25.93,3.23,3.23,0,0,0,2.26-.94A3.19,3.19,0,0,0,193.06,280.3Z"/><path d="M177.37,264.71a3.19,3.19,0,0,0-4.5,0h0a3.19,3.19,0,0,0,2.25,5.44,3.19,3.19,0,0,0,2.26-5.44Z"/><path d="M150.22,279.39l30.89-30.89a12,12,0,0,0-5.78-20.17,12.06,12.06,0,0,0,1.11-5.06,12,12,0,0,0-10-11.82,12,12,0,0,0-9.34-15.58,12.08,12.08,0,0,0,.6-3.76A12,12,0,0,0,140,181.56l-.31-.33a21.24,21.24,0,0,0-15.5-6.75h-25A3.18,3.18,0,0,0,96,177.66v4.18a14.5,14.5,0,0,0,.82,4.83,12,12,0,0,0-16,14.85,12,12,0,0,0-10,11.82,12.18,12.18,0,0,0,.6,3.76A11.86,11.86,0,0,0,65,220.44,12,12,0,0,0,62.64,234a12,12,0,0,0-5.79,20.18l6.36,6.35L31.93,291.77a3.19,3.19,0,0,0,4.51,4.51L68,264.7a12,12,0,0,0,17.91-10.92l.49,0a12,12,0,0,0,12-12c0-.16,0-.32,0-.48h.48a12,12,0,0,0,12-12c0-.17,0-.33,0-.49h.48a12,12,0,0,0,9.28-19.6l21.14-21.13a5.63,5.63,0,0,1,9.61,4,5.61,5.61,0,0,1-1.65,4l-3.12,3.12-11.3,11.3a3.19,3.19,0,0,0,4.5,4.51l11.31-11.31a5.63,5.63,0,0,1,8,8L156,214.79,147.76,223a3.19,3.19,0,0,0,0,4.5,3.16,3.16,0,0,0,4.5,0l8.2-8.19a5.63,5.63,0,0,1,8,8l-4.28,4.27-3.91,3.92a3.18,3.18,0,0,0,4.5,4.5l3.92-3.92a5.63,5.63,0,0,1,8,8l-30.89,30.89a43.15,43.15,0,0,1-29,12.65,3.14,3.14,0,0,0-2.14.93L86,317.11a3.19,3.19,0,0,0,4.51,4.5l21-21.07a29.61,29.61,0,0,0,18,4.63l16.43,16.42a3.18,3.18,0,0,0,4.5-4.5L133,299.62a3.17,3.17,0,0,0-2.51-.92l-1,.08a23.26,23.26,0,0,1-13.28-2.89l2-2.05A49.48,49.48,0,0,0,150.22,279.39Zm-72.3-21.14a5.63,5.63,0,0,1-8,0l-8.6-8.6a5.63,5.63,0,1,1,8-8l8.6,8.61A5.63,5.63,0,0,1,77.92,258.25Zm12.47-12.47a5.63,5.63,0,0,1-8,0l-8.61-8.6-4.28-4.28a5.63,5.63,0,0,1,4-9.61,5.58,5.58,0,0,1,4,1.65l12.88,12.88h0a5.63,5.63,0,0,1,0,8Zm12.47-12.46a5.66,5.66,0,0,1-8,0l-16-16a5.63,5.63,0,0,1,8-8l7.3,7.29,8.71,8.71h0a5.66,5.66,0,0,1,0,8Zm12.46-12.47a5.63,5.63,0,0,1-8,0l-16-16h0l-3.11-3.11a5.64,5.64,0,0,1,8-8l19.11,19.12a5.63,5.63,0,0,1,0,8Zm.84-16.13L107.41,196a14.69,14.69,0,0,0,3,.33h.07l8.74,0a3.19,3.19,0,0,0,0-6.37h0l-8.74,0h0a8.09,8.09,0,0,1-8.08-8.09v-1H124.2A14.86,14.86,0,0,1,135,185.57l.13.14Z"/><text class="cls-1" transform="translate(245.33 239.97)">TUTTI<tspan x="0" y="79.67">UNITI</tspan></text></svg>