<svg id="Layer_1" data-name="Layer 1" xmlns="http://www.w3.org/2000/svg" viewBox="0 0 127 36"><defs><style>.cls-1{font-size:14.32px;font-family:Arial-Black, Arial Black;}</style></defs><title>logo-top</title><path d="M49.76,24.83l-1.67-1.66a.69.69,0,1,0-1,1l1.67,1.67a.71.71,0,0,0,.49.2.7.7,0,0,0,.49-.21A.69.69,0,0,0,49.76,24.83Z"/><path d="M46.38,21.47a.68.68,0,0,0-1,0h0a.69.69,0,0,0,0,1,.67.67,0,0,0,.48.2.71.71,0,0,0,.49-.2A.68.68,0,0,0,46.38,21.47Z"/><path d="M40.52,24.63,47.18,18a2.59,2.59,0,0,0,0-3.66,2.48,2.48,0,0,0-1.24-.69,2.71,2.71,0,0,0,.24-1.09,2.57,2.57,0,0,0-.76-1.83A2.5,2.5,0,0,0,44,10a2.63,2.63,0,0,0-.63-2.65A2.52,2.52,0,0,0,42,6.62a2.51,2.51,0,0,0,.13-.82A2.57,2.57,0,0,0,41.38,4a2.54,2.54,0,0,0-1.83-.76,2.48,2.48,0,0,0-1.23.32l-.07-.07A4.56,4.56,0,0,0,34.91,2h-5.4a.69.69,0,0,0-.69.69v.9a3.29,3.29,0,0,0,.18,1,2.54,2.54,0,0,0-1-.2,2.59,2.59,0,0,0-2.46,3.4,2.6,2.6,0,0,0-1.39.72,2.57,2.57,0,0,0-.76,1.83,2.69,2.69,0,0,0,.13.81,2.63,2.63,0,0,0-1.39.72,2.6,2.6,0,0,0-.51,2.92,2.6,2.6,0,0,0-1.25,4.36l1.37,1.37L15,27.3a.69.69,0,1,0,1,1l6.81-6.82a2.61,2.61,0,0,0,1.28.34,2.6,2.6,0,0,0,2.59-2.69h.1a2.59,2.59,0,0,0,2.59-2.59v-.1h.1A2.58,2.58,0,0,0,32,13.83v-.1h.1a2.58,2.58,0,0,0,2-4.23l4.56-4.56a1.21,1.21,0,0,1,.86-.35,1.19,1.19,0,0,1,.86.35,1.22,1.22,0,0,1,.36.86,1.2,1.2,0,0,1-.36.86l-.67.67L37.3,9.77a.69.69,0,1,0,1,1l2.44-2.44A1.21,1.21,0,1,1,42.43,10l-.67.68L40,12.46a.69.69,0,1,0,1,1l1.77-1.77a1.2,1.2,0,0,1,.86-.36,1.22,1.22,0,0,1,.86.36,1.19,1.19,0,0,1,.35.86,1.21,1.21,0,0,1-.35.86l-.93.92-.84.84a.68.68,0,0,0,0,1,.67.67,0,0,0,1,0l.85-.84A1.21,1.21,0,1,1,46.21,17l-6.66,6.66a9.29,9.29,0,0,1-6.26,2.73.74.74,0,0,0-.47.2l-6.15,6.18a.68.68,0,0,0,0,1,.69.69,0,0,0,1,0l4.53-4.54a6.44,6.44,0,0,0,3.88,1l3.54,3.55a.71.71,0,0,0,.49.2.69.69,0,0,0,.48-.2.68.68,0,0,0,0-1L36.8,29a.71.71,0,0,0-.55-.2l-.21,0a5,5,0,0,1-2.87-.63l.44-.44A10.64,10.64,0,0,0,40.52,24.63Zm-15.6-4.56a1.2,1.2,0,0,1-.86.36,1.22,1.22,0,0,1-.86-.36l-1.85-1.85a1.22,1.22,0,0,1,.86-2.08,1.22,1.22,0,0,1,.86.36l1.85,1.85A1.21,1.21,0,0,1,24.92,20.07Zm2.69-2.69a1.21,1.21,0,0,1-1.72,0L24,15.53l-.93-.93a1.21,1.21,0,1,1,1.72-1.71l2.78,2.77h0a1.22,1.22,0,0,1,.36.86A1.2,1.2,0,0,1,27.61,17.38Zm2.69-2.69a1.21,1.21,0,0,1-1.72,0l-3.45-3.45a1.19,1.19,0,0,1-.35-.86,1.21,1.21,0,0,1,.35-.86,1.23,1.23,0,0,1,1.72,0l1.57,1.58L30.3,13h0a1.18,1.18,0,0,1,.36.85A1.2,1.2,0,0,1,30.3,14.69ZM33,12a1.21,1.21,0,0,1-1.72,0L27.82,8.55h0l-.67-.67a1.23,1.23,0,0,1,0-1.72,1.23,1.23,0,0,1,1.72,0L33,10.29A1.2,1.2,0,0,1,33,12Zm.18-3.48L31.28,6.64a3.7,3.7,0,0,0,.66.07h1.9a.69.69,0,0,0,0-1.38h-1.9A1.74,1.74,0,0,1,30.2,3.59V3.37h4.71a3.26,3.26,0,0,1,2.34,1l0,0Z"/><text class="cls-1" transform="translate(61.04 16.13)">TUTTI<tspan x="0" y="17.19">UNITI</tspan></text></svg>