<svg id="Layer_1" data-name="Layer 1" xmlns="http://www.w3.org/2000/svg" viewBox="0 0 127 36"><title>logo-top</title><path d="M47.73,23.51,46.12,21.9a.67.67,0,0,0-.94,0,.65.65,0,0,0,0,.93l1.62,1.61a.66.66,0,0,0,.47.19.63.63,0,0,0,.47-.2A.66.66,0,0,0,47.73,23.51Z"/><path d="M44.47,20.26a.66.66,0,0,0-.94,0h0a.66.66,0,1,0,.94,0Z"/><path d="M38.82,23.32l6.43-6.43a2.5,2.5,0,0,0,0-3.53A2.48,2.48,0,0,0,44,12.69a2.51,2.51,0,0,0-.5-2.82,2.41,2.41,0,0,0-1.34-.69,2.5,2.5,0,0,0-1.94-3.25,2.54,2.54,0,0,0,.12-.78,2.49,2.49,0,0,0-2.5-2.5,2.56,2.56,0,0,0-1.19.3l-.06-.06A4.41,4.41,0,0,0,33.4,1.48H28.19a.67.67,0,0,0-.66.66V3a3.1,3.1,0,0,0,.17,1,2.38,2.38,0,0,0-1-.19A2.48,2.48,0,0,0,25,4.56a2.51,2.51,0,0,0-.61,2.55A2.45,2.45,0,0,0,23,7.8a2.49,2.49,0,0,0-.73,1.77,2.28,2.28,0,0,0,.13.78,2.5,2.5,0,0,0-1.84,3.51,2.5,2.5,0,0,0-1.21,4.2l1.32,1.33L14.19,25.9a.66.66,0,1,0,.94.93l6.57-6.57a2.55,2.55,0,0,0,1.24.33A2.51,2.51,0,0,0,25.43,18h.1a2.49,2.49,0,0,0,2.5-2.5v-.1h.1a2.46,2.46,0,0,0,1.76-.74,2.43,2.43,0,0,0,.74-1.76s0-.07,0-.1h.1a2.49,2.49,0,0,0,1.93-4.08l4.4-4.4A1.19,1.19,0,0,1,37.88,4a1.16,1.16,0,0,1,.83.34,1.16,1.16,0,0,1,0,1.66l-.65.65L35.71,9a.66.66,0,0,0,.94.94L39,7.56a1.17,1.17,0,0,1,1.66,1.66L40,9.87,38.3,11.58a.66.66,0,1,0,.94.93L41,10.81a1.15,1.15,0,0,1,1.65,0,1.13,1.13,0,0,1,.35.83,1.16,1.16,0,0,1-.35.83l-.89.89-.81.81a.66.66,0,0,0,.94.94l.81-.82a1.19,1.19,0,0,1,1.66,0,1.17,1.17,0,0,1,0,1.66l-6.43,6.43a9,9,0,0,1-6,2.63.69.69,0,0,0-.45.2l-5.94,6a.66.66,0,1,0,.94.93l4.37-4.38a6.15,6.15,0,0,0,3.74,1l3.42,3.42a.66.66,0,1,0,.94-.94l-3.64-3.63a.64.64,0,0,0-.52-.19h-.21a4.84,4.84,0,0,1-2.77-.6l.43-.43A10.27,10.27,0,0,0,38.82,23.32Zm-15-4.4a1.18,1.18,0,0,1-1.66,0l-1.79-1.79a1.17,1.17,0,0,1,0-1.66,1.16,1.16,0,0,1,.83-.34,1.19,1.19,0,0,1,.83.34l1.79,1.79A1.19,1.19,0,0,1,23.77,18.92Zm2.59-2.6a1.17,1.17,0,0,1-1.66,0l-1.79-1.79L22,13.64A1.19,1.19,0,0,1,22,12a1.18,1.18,0,0,1,1.66,0l2.68,2.68h0a1.2,1.2,0,0,1,.35.83A1.16,1.16,0,0,1,26.36,16.32ZM29,13.73a1.19,1.19,0,0,1-1.66,0L24,10.4a1.17,1.17,0,0,1,1.66-1.66l1.51,1.52L29,12.07h0a1.18,1.18,0,0,1,0,1.66Zm2.59-2.6a1.17,1.17,0,0,1-1.66,0L26.56,7.8h0l-.64-.65a1.16,1.16,0,0,1,0-1.65,1.14,1.14,0,0,1,.82-.35,1.18,1.18,0,0,1,.83.35l4,4a1.2,1.2,0,0,1,.35.83A1.16,1.16,0,0,1,31.55,11.13Zm.18-3.36L29.91,6a2.59,2.59,0,0,0,.63.07h1.83a.66.66,0,0,0,0-1.32H30.54a1.71,1.71,0,0,1-1.19-.49A1.69,1.69,0,0,1,28.86,3v-.2H33.4a3.1,3.1,0,0,1,2.26,1l0,0Z"/><path d="M58.72,5.22H68V7.66H64.9v7.45H61.84V7.66H58.72Z"/><path d="M75.84,5.22h3v5.89a4.78,4.78,0,0,1-.28,1.66,3.52,3.52,0,0,1-.85,1.36,3.44,3.44,0,0,1-1.23.82,6.13,6.13,0,0,1-2.14.33,12.85,12.85,0,0,1-1.57-.1,4.18,4.18,0,0,1-1.43-.4,3.65,3.65,0,0,1-1-.86,3,3,0,0,1-.65-1.13,5.88,5.88,0,0,1-.28-1.68V5.22h3v6a1.78,1.78,0,0,0,.44,1.27,1.69,1.69,0,0,0,1.25.45,1.67,1.67,0,0,0,1.24-.45,1.7,1.7,0,0,0,.45-1.27Z"/><path d="M80.22,5.22h9.29V7.66H86.39v7.45H83.33V7.66H80.22Z"/><path d="M90.2,5.22h9.29V7.66H96.37v7.45H93.32V7.66H90.2Z"/><path d="M101,5.22h3.07v9.89H101Z"/><path d="M65.86,21.8h3v5.9a4.77,4.77,0,0,1-.28,1.65,3.55,3.55,0,0,1-.85,1.37,3.41,3.41,0,0,1-1.23.81,6.17,6.17,0,0,1-2.14.33,12.85,12.85,0,0,1-1.57-.1,4,4,0,0,1-1.43-.4,3.61,3.61,0,0,1-1-.85,3.15,3.15,0,0,1-.65-1.14,5.87,5.87,0,0,1-.28-1.67V21.8h3v6a1.7,1.7,0,0,0,.44,1.26,1.93,1.93,0,0,0,2.49,0,1.71,1.71,0,0,0,.45-1.27Z"/><path d="M71,21.8h2.86l3.72,5.48V21.8h2.88v9.9H77.53l-3.7-5.44V31.7H71Z"/><path d="M82.56,21.8h3.07v9.9H82.56Z"/><path d="M87.13,21.8h9.29v2.45H93.3V31.7H90.24V24.25H87.13Z"/><path d="M97.92,21.8H101v9.9H97.92Z"/></svg>